<?xml version="1.0" standalone="no"?>
<!DOCTYPE svg PUBLIC "-//W3C//DTD SVG 20010904//EN"
 "http://www.w3.org/TR/2001/REC-SVG-20010904/DTD/svg10.dtd">
<svg version="1.0" xmlns="http://www.w3.org/2000/svg"
 width="280.000000pt" height="300.000000pt" viewBox="0 0 280.000000 300.000000"
 preserveAspectRatio="xMidYMid meet">

<g transform="translate(0.000000,300.000000) scale(0.100000,-0.100000)"
fill="#000000" stroke="none">
<path d="M0 2645 l0 -355 1275 0 1275 0 0 355 0 355 -1275 0 -1275 0 0 -355z
m492 238 c19 -17 23 -49 9 -72 -6 -9 -4 -22 6 -37 18 -29 9 -80 -17 -94 -10
-6 -44 -10 -74 -10 l-56 0 0 115 0 115 57 0 c38 0 62 -5 75 -17z m248 10 c0
-5 16 -56 34 -115 l34 -108 -23 0 c-17 0 -25 6 -27 23 -2 18 -10 23 -41 25
-32 3 -38 0 -47 -22 -6 -17 -17 -26 -31 -26 -14 0 -19 5 -16 13 3 8 19 60 37
115 28 93 33 102 55 102 14 0 25 -3 25 -7z m312 -10 c19 -17 23 -49 9 -72 -6
-9 -4 -22 6 -37 18 -29 9 -80 -17 -94 -10 -6 -44 -10 -74 -10 l-56 0 0 115 0
115 57 0 c38 0 62 -5 75 -17z m278 -3 c25 -25 26 -50 1 -50 -10 0 -21 7 -25
15 -7 19 -40 19 -55 1 -19 -22 -23 -78 -9 -106 18 -33 57 -39 65 -10 7 25 36
23 41 -2 5 -27 -34 -58 -72 -58 -81 0 -114 141 -49 212 22 24 78 23 103 -2z
m295 -4 c46 -46 42 -156 -8 -191 -28 -19 -76 -19 -104 0 -49 34 -50 159 -2
198 31 25 85 22 114 -7z m285 4 c25 -25 26 -50 1 -50 -10 0 -21 7 -25 15 -9
26 -55 18 -66 -11 -13 -33 -13 -80 0 -105 14 -26 57 -25 65 2 7 21 35 23 42 3
2 -6 -6 -23 -17 -37 -29 -36 -77 -37 -111 -1 -20 22 -24 36 -24 89 0 53 4 67
24 89 30 32 82 35 111 6z m184 4 c3 -9 6 -30 6 -46 l0 -31 36 46 c26 33 44 47
61 47 l24 0 -23 -31 c-13 -17 -27 -37 -32 -44 -6 -8 2 -35 22 -80 18 -37 32
-69 32 -71 0 -2 -11 -4 -24 -4 -19 0 -28 10 -45 52 -20 47 -23 50 -37 36 -9
-9 -16 -32 -16 -52 0 -29 -4 -36 -19 -36 -18 0 -19 9 -19 115 0 92 3 115 14
115 8 0 17 -7 20 -16z m-1714 -372 c0 -100 7 -112 61 -112 46 0 49 8 49 116 0
77 2 84 20 84 18 0 20 -7 20 -67 0 -83 -15 -139 -40 -153 -26 -14 -93 -12
-114 3 -22 16 -35 74 -36 155 0 55 2 62 20 62 18 0 20 -7 20 -88z m281 6 l54
-82 3 82 c3 74 5 82 22 82 19 0 20 -7 20 -115 0 -106 -2 -115 -19 -115 -12 0
-36 27 -71 80 -29 44 -55 78 -59 75 -3 -3 -4 -40 -3 -81 3 -69 2 -74 -17 -74
-20 0 -21 5 -20 115 0 104 2 115 18 115 12 0 38 -30 72 -82z m179 -33 c0 -96
-3 -115 -15 -115 -12 0 -15 19 -15 115 0 96 3 115 15 115 12 0 15 -19 15 -115z
m97 17 c20 -51 39 -89 43 -85 4 4 22 47 40 96 21 55 38 87 48 87 16 0 18 6
-36 -132 -26 -69 -42 -98 -53 -98 -14 0 -55 83 -106 218 -4 9 0 13 11 11 12
-3 30 -35 53 -97z m341 86 c-3 -8 -29 -14 -71 -16 l-67 -3 0 -34 0 -35 65 0
c64 0 86 -12 43 -24 -13 -3 -42 -6 -65 -6 -42 0 -43 -1 -43 -35 l0 -35 70 0
c56 0 70 -3 70 -15 0 -12 -16 -15 -85 -15 l-85 0 0 115 0 115 86 0 c64 0 85
-3 82 -12z m200 -4 c37 -26 25 -91 -20 -107 -9 -3 -7 -11 8 -28 11 -13 28 -36
37 -51 17 -27 17 -28 -1 -28 -12 0 -31 19 -50 50 -28 45 -35 50 -67 50 l-35 0
0 -50 c0 -38 -4 -50 -15 -50 -12 0 -15 19 -15 115 l0 115 68 0 c45 0 75 -5 90
-16z m222 -4 c22 -22 25 -36 9 -45 -6 -4 -17 2 -25 14 -18 25 -75 29 -94 6
-18 -22 2 -42 51 -50 52 -9 82 -34 82 -70 0 -40 -34 -65 -87 -65 -43 0 -75 22
-89 63 -10 26 26 22 38 -5 8 -19 18 -23 55 -23 41 0 45 2 48 27 3 24 -1 28
-51 42 -82 24 -108 65 -67 106 14 14 33 20 65 20 32 0 51 -6 65 -20z m100 -95
c0 -96 -3 -115 -15 -115 -12 0 -15 19 -15 115 0 96 3 115 15 115 12 0 15 -19
15 -115z m220 100 c0 -10 -11 -15 -35 -15 l-35 0 0 -101 c0 -90 -2 -100 -17
-97 -16 3 -18 16 -18 101 l0 97 -37 0 c-27 0 -38 4 -38 15 0 12 17 15 90 15
73 0 90 -3 90 -15z m78 -36 l34 -51 34 51 c19 28 42 51 50 51 16 0 3 -28 -48
-102 -12 -17 -18 -44 -18 -77 0 -39 -4 -51 -15 -51 -11 0 -15 12 -15 45 0 36
-9 58 -45 115 -36 56 -41 70 -27 70 9 0 32 -23 50 -51z"/>
<path d="M400 2835 c0 -24 3 -26 33 -23 24 2 32 8 32 23 0 15 -8 21 -32 23
-30 3 -33 1 -33 -23z"/>
<path d="M400 2740 c0 -27 3 -30 34 -30 22 0 36 6 40 16 9 24 -12 44 -45 44
-26 0 -29 -4 -29 -30z"/>
<path d="M702 2806 c-13 -45 -12 -49 16 -44 17 3 18 6 7 43 l-12 40 -11 -39z"/>
<path d="M960 2835 c0 -24 3 -26 33 -23 24 2 32 8 32 23 0 15 -8 21 -32 23
-30 3 -33 1 -33 -23z"/>
<path d="M960 2740 c0 -27 3 -30 34 -30 22 0 36 6 40 16 9 24 -12 44 -45 44
-26 0 -29 -4 -29 -30z"/>
<path d="M1532 2848 c-15 -15 -16 -92 -2 -119 13 -23 53 -25 71 -2 8 9 14 35
14 58 0 23 -6 49 -14 58 -16 20 -52 22 -69 5z"/>
<path d="M1350 2534 l0 -35 51 3 c55 3 78 21 66 52 -5 12 -20 16 -62 16 l-55
0 0 -36z"/>
<path d="M0 1135 l0 -1125 435 0 435 0 2 241 c3 213 5 243 20 252 12 8 21 7
32 -2 14 -12 16 -47 16 -252 l0 -239 40 0 40 0 2 256 c3 227 5 258 20 267 12
8 21 7 32 -2 14 -12 16 -48 16 -267 l0 -254 45 0 45 0 2 271 c3 241 5 273 20
282 12 8 21 7 32 -2 14 -12 16 -49 16 -282 l0 -269 45 0 45 0 2 276 c3 246 5
278 20 287 12 8 21 7 32 -2 14 -12 16 -50 16 -287 l0 -274 45 0 45 0 2 271 c3
241 5 273 20 282 12 8 21 7 32 -2 14 -12 16 -49 16 -282 l0 -269 35 0 35 0 2
256 c3 227 5 258 20 267 12 8 21 7 32 -2 14 -12 16 -48 16 -267 l0 -254 35 0
35 0 2 241 c3 213 5 243 20 252 12 8 21 7 32 -2 14 -12 16 -47 16 -252 l0
-239 475 0 475 0 0 1125 0 1125 -1400 0 -1400 0 0 -1125z m1414 853 c6 -34 3
-41 -26 -71 -19 -18 -63 -53 -98 -76 -36 -24 -86 -64 -112 -89 -39 -38 -48
-53 -48 -82 -1 -38 -12 -27 -24 22 -8 36 32 81 126 144 104 68 156 120 164
161 8 40 9 40 18 -9z m6 -160 c0 -31 -50 -79 -160 -153 -101 -68 -133 -108
-128 -157 3 -34 2 -37 -9 -22 -7 10 -13 26 -13 35 0 10 -3 25 -6 33 -8 21 51
79 148 144 86 58 148 123 148 155 0 18 2 19 10 7 5 -8 10 -27 10 -42z m209
-94 c7 9 18 16 24 16 6 0 4 -7 -5 -16 -15 -15 -15 -19 -1 -43 l15 -26 -21 24
-21 23 -9 -23 c-8 -20 -10 -17 -10 21 0 29 3 38 8 27 6 -17 8 -17 20 -3z m67
-1 c18 -24 18 -38 0 -24 -12 10 -15 7 -19 -16 -3 -20 -4 -16 -6 15 -1 46 5 52
25 25z m34 -25 c0 -25 -4 -38 -9 -32 -8 8 -4 74 5 74 2 0 4 -19 4 -42z m78 33
c8 -5 12 -21 10 -37 -3 -25 -7 -29 -33 -29 -24 0 -31 5 -33 23 -7 46 20 66 56
43z m41 -23 l9 -33 7 33 c8 36 28 38 33 4 2 -12 7 -22 12 -22 5 0 10 10 12 22
5 38 28 33 28 -5 0 -29 4 -36 23 -40 19 -4 18 -4 -5 -6 -26 -1 -28 2 -29 37
l-1 37 -10 -37 c-12 -47 -24 -48 -34 -5 l-7 32 -14 -35 c-16 -37 -24 -32 -37
23 -9 38 1 34 13 -5z m189 25 c-34 -5 -37 -22 -5 -24 l22 -2 -22 -4 c-32 -6
-29 -31 5 -36 25 -4 25 -4 -5 -6 -32 -1 -33 0 -33 39 0 39 1 40 33 39 30 -2
30 -2 5 -6z m97 -33 c0 -31 -3 -35 -27 -38 -27 -3 -28 -1 -28 38 0 39 1 41 28
38 24 -3 27 -7 27 -38z m80 31 c3 -6 -7 -9 -22 -8 -24 2 -28 -2 -28 -23 0 -18
6 -26 23 -28 23 -4 31 13 10 21 -8 3 -5 6 5 6 24 1 18 -32 -6 -37 -37 -7 -62
39 -35 66 14 14 44 16 53 3z m63 2 c-34 -5 -37 -22 -5 -24 l22 -2 -22 -4 c-32
-6 -29 -31 5 -36 25 -4 25 -4 -5 -6 -32 -1 -33 0 -33 39 0 39 1 40 33 39 30
-2 30 -2 5 -6z m-844 -78 c-4 -18 -32 -44 -83 -80 -42 -29 -96 -74 -120 -98
-40 -42 -43 -48 -36 -83 6 -35 5 -37 -10 -24 -10 8 -21 25 -26 39 -19 48 -3
73 92 141 101 72 145 117 155 157 l7 26 14 -26 c8 -16 11 -37 7 -52z m259 -83
c-6 -4 -13 -23 -16 -42 l-4 -35 -1 37 c-2 25 -7 38 -19 41 -10 3 -2 5 17 6 19
0 30 -3 23 -7z m83 -3 c3 -6 1 -16 -4 -21 -8 -8 -8 -17 0 -32 11 -20 10 -20
-9 -3 -11 9 -22 17 -26 17 -3 0 -8 -8 -10 -17 -3 -10 -5 1 -6 25 -1 38 1 42
23 42 14 0 28 -5 32 -11z m52 -57 c11 2 19 17 23 38 6 34 6 34 8 5 1 -39 -12
-58 -35 -53 -14 2 -19 12 -20 38 l-1 35 4 -33 c3 -25 9 -32 21 -30z m90 61
c-13 -3 -18 -16 -20 -41 l-1 -37 -4 35 c-3 19 -10 38 -16 42 -7 4 4 7 23 7 19
-1 27 -3 18 -6z m52 -23 c10 0 21 8 23 18 3 9 5 -3 4 -28 0 -25 -2 -35 -4 -22
-3 13 -12 22 -23 22 -11 0 -20 -9 -23 -22 -2 -13 -4 -3 -4 22 -1 25 1 37 4 28
2 -10 13 -18 23 -18z m-406 -35 c-10 -8 -56 -38 -100 -65 -91 -55 -109 -73
-100 -95 8 -22 -11 -19 -23 4 -13 23 8 43 104 101 82 49 115 77 116 99 0 11 4
9 11 -7 9 -18 8 -25 -8 -37z m15 -76 c-13 -11 -55 -38 -93 -60 -86 -52 -109
-74 -101 -99 5 -15 3 -18 -9 -14 -21 8 -28 34 -15 50 6 8 46 35 88 61 88 54
131 90 132 112 0 10 4 8 12 -7 9 -21 8 -27 -14 -43z m151 -18 c0 -5 -9 -7 -20
-4 -29 8 -25 -12 6 -26 14 -6 24 -17 21 -24 -5 -16 -36 -22 -50 -8 -7 7 -4 8
10 5 12 -3 24 -1 27 5 4 6 -4 13 -19 17 -24 6 -33 23 -18 37 10 10 43 8 43 -2z
m58 2 c-34 -5 -37 -22 -5 -24 l22 -2 -22 -4 c-32 -6 -29 -31 5 -36 25 -4 25
-4 -5 -6 -32 -1 -33 0 -33 39 0 39 1 40 33 39 30 -2 30 -2 5 -6z m98 -4 c3 -6
1 -16 -4 -21 -8 -8 -8 -17 0 -32 10 -20 10 -20 -11 1 -25 26 -26 33 -5 33 8 0
12 5 9 10 -14 23 -34 9 -38 -27 l-4 -38 -1 43 c-2 38 0 42 22 42 14 0 28 -5
32 -11z m59 -21 c8 17 17 32 20 32 3 0 -2 -16 -10 -36 -8 -20 -15 -38 -15 -40
0 -2 -4 -4 -9 -4 -5 0 -14 14 -20 31 -16 47 -13 60 5 19 l15 -35 14 33z m42
-30 c-2 -13 -4 -3 -4 22 0 25 2 35 4 23 2 -13 2 -33 0 -45z m78 52 c4 -7 -2
-9 -18 -5 -26 7 -41 -12 -31 -40 7 -18 25 -19 43 -2 11 10 13 9 9 -3 -3 -8
-14 -16 -26 -18 -29 -4 -51 40 -32 63 14 17 46 20 55 5z m58 3 c-13 -2 -23 -9
-23 -14 0 -5 10 -10 23 -10 l22 -2 -22 -4 c-32 -6 -29 -31 5 -36 25 -4 25 -4
-5 -6 -32 -1 -33 0 -33 39 0 37 2 40 28 39 23 -2 24 -2 5 -6z m-495 -16 c16
-18 6 -29 -77 -82 -92 -58 -105 -71 -98 -95 7 -25 -5 -25 -27 -1 -10 11 -15
25 -11 31 4 7 46 37 92 67 47 30 88 63 90 74 6 22 16 24 31 6z m39 -291 c355
-131 388 -144 380 -152 -3 -3 -158 42 -344 100 -187 58 -346 106 -353 106 -12
0 -443 -132 -643 -197 -26 -9 -51 -13 -54 -9 -4 3 -4 7 -2 9 9 7 685 256 696
257 6 0 150 -51 320 -114z m-75 -47 c377 -119 422 -135 426 -149 3 -8 -1 -11
-9 -8 -8 3 -157 42 -331 88 l-317 83 -333 -81 c-183 -45 -336 -78 -341 -73 -6
6 634 207 670 210 7 1 113 -31 235 -70z m25 -94 c52 -8 132 -28 177 -43 l81
-27 3 -39 c3 -34 1 -38 -15 -31 -129 55 -357 95 -543 95 -159 0 -338 -29 -436
-71 l-42 -17 -4 30 c-4 28 -1 32 37 49 73 32 188 57 345 73 71 7 304 -4 397
-19z m-37 -100 c115 -17 215 -47 261 -78 l34 -23 3 -128 3 -128 -33 20 c-109
67 -294 96 -562 89 -248 -6 -382 -35 -440 -92 -15 -15 -16 -5 -16 114 0 127 0
130 26 150 40 31 124 59 226 75 123 19 378 20 498 1z"/>
<path d="M1764 1726 c-9 -24 4 -48 23 -44 24 4 24 52 0 56 -9 2 -20 -4 -23
-12z"/>
<path d="M2090 1710 c0 -25 4 -31 18 -28 11 2 17 12 17 28 0 16 -6 26 -17 28
-14 3 -18 -3 -18 -28z"/>
<path d="M1730 1570 c0 -5 9 -10 21 -10 11 0 17 5 14 10 -3 6 -13 10 -21 10
-8 0 -14 -4 -14 -10z"/>
<path d="M1347 784 c-12 -13 -8 -42 8 -48 25 -9 46 5 43 28 -3 21 -37 34 -51
20z"/>
<path d="M1187 773 c-14 -13 -6 -41 13 -46 23 -6 45 16 36 38 -5 15 -37 21
-49 8z"/>
<path d="M1503 764 c-7 -20 22 -45 44 -37 8 3 13 15 11 27 -4 27 -45 35 -55
10z"/>
<path d="M1031 742 c-8 -15 -7 -23 4 -32 21 -18 47 -4 43 22 -4 29 -34 35 -47
10z"/>
<path d="M1661 736 c-18 -22 14 -50 40 -35 13 6 18 17 15 26 -3 8 -6 17 -6 19
0 10 -39 3 -49 -10z"/>
<path d="M874 696 c-9 -22 4 -36 32 -36 21 0 25 4 22 23 -4 26 -45 37 -54 13z"/>
<path d="M1786 695 c-7 -19 20 -46 39 -39 8 4 15 17 15 30 0 19 -5 24 -24 24
-13 0 -26 -7 -30 -15z"/>
</g>
</svg>
