<?xml version="1.0" standalone="no"?>
<!DOCTYPE svg PUBLIC "-//W3C//DTD SVG 20010904//EN"
 "http://www.w3.org/TR/2001/REC-SVG-20010904/DTD/svg10.dtd">
<svg version="1.0" xmlns="http://www.w3.org/2000/svg"
 width="900.000000pt" height="900.000000pt" viewBox="0 0 900.000000 900.000000"
 preserveAspectRatio="xMidYMid meet">

<g transform="translate(0.000000,900.000000) scale(0.100000,-0.100000)"
fill="#000000" stroke="none">
<path d="M2760 5616 c0 -260 -3 -488 -6 -505 l-6 -31 81 0 81 0 0 45 c0 52 7
55 41 19 76 -82 253 -97 379 -34 55 28 125 109 146 171 27 77 26 243 -1 318
-25 68 -82 133 -143 163 -40 19 -62 23 -147 23 -90 0 -106 -3 -158 -29 -32
-15 -61 -34 -64 -42 -16 -44 -23 7 -23 179 l0 192 -90 2 -90 3 0 -474z m468
57 c163 -93 155 -412 -13 -501 -37 -19 -140 -21 -174 -3 -29 16 -66 56 -87 94
-12 23 -15 58 -12 180 3 168 8 181 75 227 64 44 138 45 211 3z"/>
<path d="M3760 5584 l0 -504 88 0 87 0 -3 506 -2 505 -85 -2 -85 -2 0 -503z"/>
<path d="M4305 6068 c-54 -29 -62 -93 -16 -139 39 -38 106 -41 147 -6 37 32
37 102 -1 135 -29 24 -95 30 -130 10z"/>
<path d="M948 6053 l-48 -4 -2 -485 -3 -484 88 0 87 0 0 200 0 200 63 1 c91 1
134 7 212 30 96 29 135 50 189 104 107 107 97 273 -22 360 -83 62 -153 78
-347 80 -93 1 -191 1 -217 -2z m349 -88 c100 -30 148 -97 141 -197 -5 -74 -44
-132 -111 -167 -40 -20 -67 -25 -153 -29 l-104 -5 0 200 c0 110 3 203 7 206
12 13 169 7 220 -8z"/>
<path d="M5035 5774 c-124 -28 -234 -108 -279 -204 -17 -37 -21 -64 -21 -150
1 -124 12 -157 80 -228 87 -93 238 -135 417 -113 50 6 93 13 96 16 3 2 1 19
-5 37 -7 27 -14 33 -34 31 -144 -13 -222 -1 -290 44 -126 83 -147 280 -43 401
53 62 127 94 217 94 41 0 88 -3 104 -6 27 -6 31 -4 45 33 15 36 15 40 -1 46
-38 15 -217 14 -286 -1z"/>
<path d="M1750 5516 c0 -278 4 -305 48 -365 41 -55 100 -75 217 -76 108 0 181
18 230 57 22 17 29 19 36 7 5 -8 9 -24 9 -36 0 -22 4 -23 78 -23 l77 0 -8 113
c-4 61 -6 219 -5 350 l3 237 -87 0 -88 0 0 -259 c0 -251 -1 -259 -23 -291 -35
-53 -78 -73 -155 -72 -76 2 -107 18 -134 73 -16 30 -18 66 -18 292 l0 257 -90
0 -90 0 0 -264z"/>
<path d="M4280 5430 l0 -350 85 0 85 0 0 350 0 350 -85 0 -85 0 0 -350z"/>
<path d="M7478 4962 l-88 -3 0 -519 1 -520 89 0 89 0 3 263 3 264 27 39 c35
50 75 73 138 81 68 8 127 -16 160 -64 25 -36 25 -37 28 -310 l3 -273 90 0 90
0 -4 273 c-4 297 -8 325 -60 384 -51 58 -105 77 -218 76 -82 0 -104 -4 -155
-27 -32 -15 -66 -34 -76 -43 -26 -23 -28 -12 -30 197 l-3 185 -87 -3z"/>
<path d="M6208 4440 l-3 -520 92 0 92 0 1 520 0 520 -90 0 -90 0 -2 -520z"/>
<path d="M3210 4428 l0 -508 85 0 85 0 2 238 3 237 233 3 232 2 0 -240 0 -240
90 0 90 0 -2 508 -3 507 -87 0 -88 0 0 -220 0 -220 -232 2 -233 2 -5 218 -5
218 -83 0 -82 0 0 -507z"/>
<path d="M6843 4796 l-83 -20 0 -365 c0 -341 2 -369 20 -409 15 -34 29 -47 67
-64 52 -23 192 -36 258 -24 39 8 38 3 25 84 0 1 -28 2 -63 2 -42 0 -70 5 -86
16 -45 32 -51 66 -51 313 l0 230 113 3 112 3 3 37 3 37 -113 3 -113 3 -5 85
-5 86 -82 -20z"/>
<path d="M4598 4650 c-104 -18 -151 -41 -209 -101 -77 -78 -101 -142 -103
-269 -1 -130 19 -187 93 -261 83 -83 151 -104 336 -104 83 0 161 5 191 13 l51
13 -11 40 c-7 26 -15 38 -23 35 -40 -16 -155 -28 -213 -23 -90 8 -143 31 -190
85 -41 45 -56 85 -62 157 l-3 40 264 3 263 2 -4 88 c-9 184 -95 274 -274 287
-32 2 -80 0 -106 -5z m115 -84 c21 -8 48 -22 59 -33 31 -27 58 -92 58 -140 l0
-43 -185 0 -185 0 0 28 c0 35 42 121 74 151 26 24 88 50 121 50 11 0 37 -6 58
-13z"/>
<path d="M5435 4650 c-85 -11 -155 -29 -155 -42 0 -23 32 -69 45 -64 127 48
291 34 338 -29 18 -26 41 -121 31 -136 -3 -5 -32 -9 -64 -9 -134 0 -280 -45
-353 -110 -119 -104 -89 -274 59 -329 104 -40 265 -23 333 35 36 30 51 25 51
-17 l0 -29 78 0 77 0 -3 272 c-3 309 -8 334 -72 392 -65 58 -211 85 -365 66z
m265 -449 c0 -85 -3 -102 -22 -131 -39 -57 -71 -74 -146 -78 -58 -3 -72 0
-102 20 -19 13 -41 35 -48 48 -18 34 -10 115 15 148 39 52 141 88 261 91 l42
1 0 -99z"/>
<path d="M5982 3894 c-32 -22 -43 -55 -31 -98 12 -44 33 -56 99 -56 41 0 56 5
75 25 37 36 30 98 -14 132 -23 18 -102 16 -129 -3z"/>
<path d="M1960 3891 c-69 -14 -182 -64 -231 -103 -204 -161 -220 -542 -31
-725 141 -137 399 -170 608 -78 67 29 159 115 189 175 46 93 59 150 59 260 -1
120 -22 198 -81 288 -58 86 -146 145 -268 176 -60 16 -181 19 -245 7z m190
-97 c37 -11 69 -30 107 -66 165 -157 173 -441 16 -609 -71 -76 -111 -94 -213
-94 -101 0 -139 17 -212 92 -51 52 -89 127 -107 211 -15 72 -14 114 5 191 36
142 109 235 216 272 66 23 119 24 188 3z"/>
<path d="M3862 3756 l-83 -20 3 -341 3 -342 27 -40 c38 -58 100 -78 236 -77
56 1 105 4 108 7 3 3 2 21 -1 41 l-7 36 -65 0 c-58 0 -67 3 -94 29 l-29 29 0
231 0 230 108 3 107 3 3 38 3 37 -110 0 -111 0 0 74 c0 41 -3 76 -7 78 -5 2
-45 -5 -91 -16z"/>
<path d="M3085 3621 c-38 -10 -132 -57 -140 -71 -12 -19 -25 1 -25 36 l0 34
-77 0 -76 0 6 -112 c4 -62 7 -215 7 -340 l0 -228 85 1 84 1 3 253 3 254 34 35
c47 48 79 59 160 54 75 -4 99 -17 130 -73 13 -25 17 -71 19 -277 l4 -248 84 0
84 0 0 248 c0 147 -5 263 -11 286 -16 56 -44 90 -103 122 -44 25 -63 29 -146
31 -52 1 -108 -2 -125 -6z"/>
<path d="M4540 3623 c-60 -10 -130 -35 -130 -46 0 -7 8 -22 18 -34 17 -21 19
-22 77 -8 85 21 181 19 232 -4 46 -21 67 -53 77 -117 l7 -40 -103 -12 c-125
-15 -121 -14 -184 -35 -123 -42 -186 -112 -186 -207 0 -81 51 -147 135 -172
69 -21 193 -16 252 10 27 13 57 30 67 38 22 21 38 10 38 -27 l0 -29 78 0 77 0
-3 247 c-2 137 -8 266 -14 288 -25 98 -145 156 -317 154 -53 -1 -107 -4 -121
-6z m278 -413 c2 -67 -1 -92 -16 -120 -37 -70 -158 -102 -238 -64 -70 33 -87
128 -34 188 44 50 159 87 255 82 l30 -1 3 -85z"/>
<path d="M5640 3623 c-52 -18 -123 -59 -139 -79 -11 -13 -21 -24 -24 -24 -3 0
-8 23 -12 50 l-7 50 -76 0 -77 0 3 -327 c2 -181 5 -334 7 -340 3 -9 30 -13 90
-13 l85 0 0 215 c0 235 4 258 56 307 37 34 86 55 152 64 l52 7 0 48 0 49 -47
-1 c-27 0 -55 -3 -63 -6z"/>
<path d="M6648 3611 c-151 -49 -227 -147 -236 -301 -14 -238 116 -374 358
-375 165 0 287 63 347 179 36 69 45 219 18 294 -32 90 -78 139 -163 180 -69
33 -86 37 -172 39 -72 2 -109 -2 -152 -16z m218 -81 c125 -61 164 -292 73
-435 -70 -110 -239 -113 -314 -5 -40 57 -54 106 -55 185 0 85 11 127 49 186
52 83 158 112 247 69z"/>
<path d="M5962 3283 l3 -338 83 -3 82 -3 0 341 0 340 -85 0 -85 0 2 -337z"/>
</g>
</svg>
