<?xml version="1.0" standalone="no"?>
<!DOCTYPE svg PUBLIC "-//W3C//DTD SVG 20010904//EN"
 "http://www.w3.org/TR/2001/REC-SVG-20010904/DTD/svg10.dtd">
<svg version="1.0" xmlns="http://www.w3.org/2000/svg"
 width="154.000000pt" height="178.000000pt" viewBox="0 0 154.000000 178.000000"
 preserveAspectRatio="xMidYMid meet">

<g transform="translate(0.000000,178.000000) scale(0.100000,-0.100000)"
fill="#000000" stroke="none">
<path d="M0 1115 l0 -665 63 -1 c34 -1 52 -4 40 -6 -13 -2 -23 -6 -23 -8 0 -3
51 -147 66 -185 4 -9 16 13 30 55 27 79 24 121 -9 135 -16 6 -1 9 48 8 39 0
60 -3 48 -5 -13 -2 -23 -6 -23 -8 0 -3 51 -145 66 -185 6 -13 63 147 64 177 0
6 -8 14 -17 16 -10 3 5 5 32 5 35 1 44 -2 30 -7 -15 -6 -31 -43 -64 -142 -45
-138 -57 -163 -65 -138 -3 8 -21 54 -39 103 l-34 89 -35 -99 c-20 -54 -40 -98
-44 -96 -5 1 -32 64 -60 139 -27 75 -56 139 -62 141 -9 3 -12 -51 -12 -217 l0
-221 44 0 45 0 -5 37 -4 38 10 -32 c13 -42 27 -42 40 -1 l10 33 -4 -38 c-4
-34 -3 -37 20 -37 21 0 24 5 24 35 0 19 4 35 9 35 6 0 7 -16 4 -35 -4 -28 -2
-35 11 -35 18 0 22 15 6 25 -6 3 -10 11 -10 16 0 6 4 8 9 4 5 -3 12 3 14 12 3
10 5 1 6 -19 1 -33 4 -38 25 -38 21 0 25 5 29 37 l4 38 1 -37 c2 -35 4 -38 33
-38 32 0 32 3 11 59 -3 9 -1 12 6 7 7 -4 12 -15 12 -24 1 -12 5 -10 15 8 16
29 20 14 5 -24 -9 -24 -8 -26 20 -26 26 0 29 3 32 37 2 27 8 39 21 41 9 2 17
-1 17 -7 0 -6 -8 -11 -17 -11 -14 0 -15 -2 -4 -9 11 -7 11 -9 0 -14 -11 -4
-10 -9 5 -21 35 -28 54 -20 58 22 2 29 7 37 23 37 14 0 20 -7 21 -25 2 -47 4
-50 30 -50 17 0 23 4 18 12 -5 8 -2 9 9 5 9 -3 19 -2 22 3 3 5 -4 11 -15 15
-22 7 -27 30 -9 41 6 3 16 1 22 -6 7 -6 8 -11 2 -10 -25 5 -28 -1 -7 -16 13
-9 21 -22 18 -30 -4 -11 7 -14 49 -14 54 0 55 0 55 30 0 17 -4 30 -10 30 -5 0
-10 5 -10 10 0 6 11 10 25 10 14 0 25 -4 25 -10 0 -5 -4 -10 -10 -10 -5 0 -10
-13 -10 -30 0 -28 3 -30 35 -30 38 0 44 14 23 53 -10 19 -9 20 4 10 11 -10 17
-10 27 0 11 10 11 8 2 -10 -24 -48 -17 -53 74 -53 83 0 85 1 75 20 -8 14 -8
26 0 41 13 23 41 22 48 -1 5 -13 3 -13 -11 -1 -14 11 -18 11 -23 -3 -3 -9 -3
-23 0 -32 5 -14 9 -14 23 -3 15 12 16 12 10 -3 -5 -14 -1 -18 18 -18 14 0 25
6 25 13 1 6 7 26 14 42 l13 30 18 -43 c23 -55 55 -60 55 -7 0 19 4 35 9 35 6
0 7 -16 4 -35 -4 -28 -2 -35 11 -35 18 0 22 15 6 25 -5 3 -10 11 -10 16 0 6 4
8 9 4 5 -3 12 3 14 12 3 10 5 1 6 -19 2 -55 33 -52 56 5 l18 42 13 -30 c7 -16
13 -36 14 -42 0 -7 10 -13 23 -13 20 0 23 4 19 34 -5 39 9 52 38 36 22 -12 26
-40 8 -58 -9 -9 -6 -12 14 -12 21 0 29 7 38 36 14 41 31 40 44 -4 15 -54 26
-36 26 43 l0 75 -55 0 c-30 0 -55 5 -55 10 0 6 7 10 15 10 13 0 15 14 13 82
-3 76 -5 83 -24 86 -39 6 -54 -23 -54 -99 0 -55 3 -69 15 -69 8 0 15 -4 15
-10 0 -5 -25 -10 -55 -10 -30 0 -55 5 -55 10 0 6 7 10 15 10 12 0 15 16 15 85
0 74 -2 85 -17 86 -10 1 0 5 22 9 22 4 42 4 45 -1 3 -4 12 -4 20 1 23 15 77
12 94 -6 12 -11 16 -36 16 -95 0 -64 3 -79 15 -79 13 0 15 96 15 805 l0 805
-257 -1 c-244 -1 -254 -2 -178 -13 44 -7 89 -16 100 -19 11 -3 40 -11 63 -17
l44 -11 -4 -317 c-4 -292 -6 -323 -27 -392 -61 -206 -189 -354 -393 -456 l-90
-45 -76 36 c-253 120 -401 322 -432 591 -5 49 -10 198 -10 332 l0 243 36 15
c19 8 83 23 142 34 l107 18 -282 1 -283 1 0 -665z m878 -766 l27 -2 -27 -4
c-28 -4 -28 -5 -28 -84 0 -64 3 -81 16 -86 9 -3 20 0 24 8 5 7 13 10 17 5 12
-12 -27 -36 -59 -36 -38 0 -48 24 -48 114 0 66 -2 76 -17 76 -13 1 -10 5 10
16 15 8 33 27 40 42 l11 27 4 -37 c3 -33 7 -38 30 -39z m-334 -10 c15 -12 26
-30 26 -45 0 -23 -3 -24 -65 -24 l-65 0 0 -33 c0 -68 57 -92 106 -47 13 13 24
18 24 12 0 -25 -44 -52 -86 -52 -58 0 -94 41 -94 107 0 86 88 134 154 82z
m196 -10 l0 -32 -25 27 c-27 29 -47 33 -65 11 -16 -20 -5 -34 45 -55 65 -28
82 -69 44 -109 -17 -18 -29 -22 -74 -19 -52 3 -54 4 -60 36 -8 44 0 51 17 16
17 -36 64 -52 85 -31 22 22 10 43 -39 68 -49 25 -58 35 -58 66 0 36 26 53 81
53 48 0 49 0 49 -31z m335 6 c14 -13 25 -33 25 -45 0 -18 -6 -20 -65 -20 l-65
0 0 -33 c0 -68 57 -92 106 -47 30 29 32 15 2 -17 -16 -17 -32 -23 -62 -23 -65
1 -96 36 -96 110 0 86 98 133 155 75z m125 9 c0 -14 2 -14 16 1 21 21 68 16
72 -8 5 -25 -28 -34 -44 -12 -8 10 -15 17 -18 14 -17 -19 -26 -57 -26 -108 0
-48 3 -61 15 -61 8 0 15 -4 15 -10 0 -5 -25 -10 -55 -10 -30 0 -55 5 -55 10 0
6 7 10 15 10 12 0 15 16 15 85 0 74 -2 85 -17 86 -15 1 14 10 60 18 4 0 7 -6
7 -15z m-510 -304 c0 -17 -4 -30 -10 -30 -5 0 -10 13 -10 30 0 17 5 30 10 30
6 0 10 -13 10 -30z"/>
<path d="M457 332 c-30 -33 -22 -52 23 -52 36 0 40 3 40 25 0 14 -8 29 -19 35
-25 13 -25 13 -44 -8z"/>
<path d="M986 334 c-9 -8 -16 -24 -16 -35 0 -16 7 -19 40 -19 36 0 40 3 40 25
0 14 -8 29 -19 35 -25 13 -27 13 -45 -6z"/>
<path d="M525 1726 c-49 -7 -114 -18 -142 -25 l-53 -13 0 -143 0 -142 230
-187 c127 -103 230 -190 230 -194 -1 -6 -188 -161 -283 -234 l-22 -17 30 -31
c42 -44 138 -112 213 -149 75 -38 87 -36 203 35 66 40 169 128 169 144 0 4
-68 62 -151 129 -123 101 -148 126 -137 136 7 7 101 83 208 170 281 228 250
184 250 342 0 155 10 142 -130 169 -114 22 -490 28 -615 10z m233 -85 l16 -24
12 44 11 44 14 -50 13 -50 11 37 c17 62 32 66 40 12 l7 -48 23 39 24 38 3 -49
3 -49 19 37 c28 54 42 54 37 -1 l-3 -46 32 30 33 30 -7 -30 c-4 -16 -10 -39
-13 -50 -4 -16 2 -13 29 13 19 17 37 32 40 32 3 0 0 -20 -8 -45 -14 -49 -14
-49 39 -13 33 23 34 17 6 -29 -26 -41 -21 -50 14 -23 14 11 32 20 41 20 12 0
10 -7 -9 -37 -14 -20 -24 -38 -21 -40 2 -2 15 1 30 7 44 16 51 12 26 -15 l-23
-25 -397 0 c-387 0 -398 1 -424 21 -38 30 -32 40 15 24 55 -20 55 -20 25 16
-35 42 -33 49 12 34 20 -7 38 -12 40 -10 2 1 -7 20 -20 41 -23 39 -19 39 34 2
38 -26 40 -23 17 22 -12 23 -18 44 -15 48 4 3 10 2 14 -4 4 -5 20 -18 35 -28
l29 -18 -7 24 c-18 64 -18 64 19 29 l35 -34 -5 54 c-4 44 -3 51 6 35 7 -10 21
-27 31 -37 17 -17 18 -17 21 24 l3 42 19 -37 c24 -47 36 -48 34 -5 -1 41 14
73 20 42 3 -10 12 -30 20 -44z m16 -297 c12 -5 16 -21 16 -70 l0 -64 -60 0
-60 0 0 64 c0 42 4 66 13 69 18 8 73 8 91 1z m130 0 c12 -5 16 -21 16 -69 l0
-63 -56 -4 c-31 -1 -58 -1 -60 1 -11 11 -3 130 9 134 18 8 73 8 91 1z m-247
-121 c-2 -21 -4 -4 -4 37 0 41 2 58 4 38 2 -21 2 -55 0 -75z m138 -43 c13 -6
15 -9 5 -9 -8 0 -22 4 -30 9 -18 12 -2 12 25 0z m25 -296 c0 -8 7 -14 15 -14
12 0 13 -5 4 -26 -11 -30 -6 -41 13 -27 7 5 26 10 42 11 23 2 27 -1 21 -16 -4
-9 -8 -25 -9 -35 -2 -10 -9 -23 -17 -27 -8 -5 -14 -17 -14 -27 0 -14 -8 -18
-37 -18 -35 0 -36 -1 -31 -31 3 -18 0 -34 -6 -38 -7 -5 -11 6 -11 33 0 33 -3
40 -17 39 -40 -3 -55 2 -49 17 4 10 -3 20 -19 27 -13 6 -22 15 -19 20 3 5 -1
19 -9 32 -15 22 -15 23 19 21 18 -1 41 -9 51 -16 15 -13 16 -11 10 24 -3 20
-2 37 2 37 4 0 14 11 21 25 10 19 16 22 27 14 7 -6 13 -18 13 -25z"/>
<path d="M740 1296 c0 -9 4 -16 9 -16 5 0 12 -8 14 -17 4 -17 5 -17 6 0 0 10
-6 25 -14 33 -13 14 -15 14 -15 0z"/>
<path d="M702 1270 c0 -14 2 -19 5 -12 2 6 2 18 0 25 -3 6 -5 1 -5 -13z"/>
<path d="M870 1296 c0 -9 4 -16 9 -16 5 0 12 -8 14 -17 4 -17 5 -17 6 0 0 10
-6 25 -14 33 -13 14 -15 14 -15 0z"/>
<path d="M820 1286 c0 -2 7 -6 15 -10 8 -3 15 -1 15 4 0 6 -7 10 -15 10 -8 0
-15 -2 -15 -4z"/>
<path d="M495 1143 c-57 -12 -100 -88 -84 -147 14 -51 61 -86 115 -86 39 0 51
5 80 34 27 27 34 42 34 75 0 72 -31 113 -95 123 -17 3 -39 4 -50 1z m49 -76
c-10 -26 16 -29 36 -5 11 13 19 18 20 11 0 -6 -4 -15 -10 -18 -17 -11 -11 -40
11 -53 12 -7 18 -16 15 -19 -3 -3 -12 -1 -19 5 -10 9 -22 3 -51 -27 -34 -35
-41 -38 -62 -29 l-23 11 24 29 c29 34 30 46 10 75 -10 14 -22 19 -35 16 -11
-3 -20 0 -20 6 0 6 8 11 18 11 9 0 28 6 42 13 29 15 54 0 44 -26z"/>
<path d="M1025 1136 c-43 -19 -66 -49 -72 -94 -10 -73 40 -132 112 -132 88 0
144 76 114 156 -25 65 -95 97 -154 70z m108 -25 c4 0 3 -9 -2 -18 -5 -10 -15
-37 -22 -60 -11 -38 -10 -45 6 -63 13 -14 15 -24 8 -31 -13 -13 -67 12 -81 36
-4 9 -22 17 -40 18 -17 1 -34 7 -36 14 -6 14 21 26 29 13 4 -6 13 -10 22 -10
11 0 13 4 6 13 -15 18 -24 65 -15 71 13 8 27 -7 27 -29 0 -12 8 -21 20 -23 18
-2 18 -1 4 10 -14 11 -14 15 -3 26 7 6 18 12 25 12 6 0 9 6 6 14 -5 12 6 14
46 7z m17 -69 c-6 -2 -10 -11 -10 -19 0 -13 3 -13 15 -3 12 10 15 10 15 -4 0
-9 -4 -16 -9 -16 -5 0 -11 -8 -14 -17 -3 -14 -6 -11 -11 10 -10 35 1 88 14 66
6 -8 6 -15 0 -17z"/>
<path d="M516 61 c-4 -5 -2 -12 3 -15 5 -4 12 -2 15 3 4 5 2 12 -3 15 -5 4
-12 2 -15 -3z"/>
<path d="M1384 57 c-3 -9 -3 -25 0 -34 6 -15 8 -15 24 0 15 16 15 18 0 34 -16
15 -18 15 -24 0z"/>
<path d="M510 16 c0 -9 7 -16 16 -16 9 0 14 5 12 12 -6 18 -28 21 -28 4z"/>
<path d="M1090 10 c0 -5 9 -10 21 -10 11 0 17 4 14 10 -8 13 -35 13 -35 0z"/>
<path d="M1285 10 c-3 -5 3 -10 14 -10 12 0 21 5 21 10 0 6 -6 10 -14 10 -8 0
-18 -4 -21 -10z"/>
<path d="M1475 10 c-3 -5 3 -10 14 -10 12 0 21 5 21 10 0 6 -6 10 -14 10 -8 0
-18 -4 -21 -10z"/>
</g>
</svg>
